<svg width="113" height="36" viewBox="0 0 113 36" fill="none" xmlns="http://www.w3.org/2000/svg">
<path d="M26.2434 21.704C26.3714 21.896 26.4354 22.0827 26.4354 22.264C26.4354 22.5093 26.3341 22.712 26.1314 22.872C25.9394 23.032 25.7101 23.112 25.4434 23.112C25.2728 23.112 25.1074 23.0747 24.9474 23C24.7981 22.9147 24.6701 22.792 24.5634 22.632L22.4354 19.4C22.2221 19.0587 21.9928 18.8187 21.7474 18.68C21.5128 18.5413 21.2034 18.472 20.8194 18.472H19.2514V22.056C19.2514 22.376 19.1608 22.632 18.9794 22.824C18.7981 23.0053 18.5528 23.096 18.2434 23.096C17.9341 23.096 17.6834 23.0053 17.4914 22.824C17.3101 22.632 17.2194 22.376 17.2194 22.056V12.696C17.2194 12.3867 17.3048 12.1467 17.4754 11.976C17.6568 11.8053 17.9021 11.72 18.2114 11.72H22.2114C23.4914 11.72 24.4621 12.008 25.1234 12.584C25.7954 13.1493 26.1314 13.9707 26.1314 15.048C26.1314 15.9227 25.8808 16.6427 25.3794 17.208C24.8888 17.7627 24.1901 18.12 23.2834 18.28C23.5928 18.3547 23.8648 18.488 24.0994 18.68C24.3341 18.872 24.5634 19.1387 24.7874 19.48L26.2434 21.704ZM21.9234 16.888C22.7021 16.888 23.2728 16.744 23.6354 16.456C23.9981 16.1573 24.1794 15.704 24.1794 15.096C24.1794 14.4773 23.9981 14.0293 23.6354 13.752C23.2728 13.464 22.7021 13.32 21.9234 13.32H19.2354V16.888H21.9234ZM34.3604 20.856C34.5418 20.856 34.6858 20.9253 34.7924 21.064C34.9098 21.2027 34.9684 21.3893 34.9684 21.624C34.9684 21.9547 34.7711 22.232 34.3764 22.456C34.0138 22.6587 33.6031 22.824 33.1444 22.952C32.6858 23.0693 32.2484 23.128 31.8324 23.128C30.5738 23.128 29.5764 22.7653 28.8404 22.04C28.1044 21.3147 27.7364 20.3227 27.7364 19.064C27.7364 18.264 27.8964 17.5547 28.2164 16.936C28.5364 16.3173 28.9844 15.8373 29.5604 15.496C30.1471 15.1547 30.8084 14.984 31.5444 14.984C32.2484 14.984 32.8618 15.1387 33.3844 15.448C33.9071 15.7573 34.3124 16.1947 34.6004 16.76C34.8884 17.3253 35.0324 17.992 35.0324 18.76C35.0324 19.2187 34.8298 19.448 34.4244 19.448H29.7044C29.7684 20.184 29.9764 20.728 30.3284 21.08C30.6804 21.4213 31.1924 21.592 31.8644 21.592C32.2058 21.592 32.5044 21.5493 32.7604 21.464C33.0271 21.3787 33.3258 21.2613 33.6564 21.112C33.9764 20.9413 34.2111 20.856 34.3604 20.856ZM31.5924 16.392C31.0484 16.392 30.6111 16.5627 30.2804 16.904C29.9604 17.2453 29.7684 17.736 29.7044 18.376H33.3204C33.2991 17.7253 33.1391 17.2347 32.8404 16.904C32.5418 16.5627 32.1258 16.392 31.5924 16.392ZM40.0604 14.984C41.1484 14.984 41.9538 15.256 42.4764 15.8C43.0098 16.3333 43.2764 17.1493 43.2764 18.248V22.152C43.2764 22.44 43.1911 22.6693 43.0204 22.84C42.8498 23 42.6151 23.08 42.3164 23.08C42.0391 23.08 41.8098 22.9947 41.6284 22.824C41.4578 22.6533 41.3724 22.4293 41.3724 22.152V21.8C41.1911 22.216 40.9031 22.5413 40.5084 22.776C40.1244 23.0107 39.6764 23.128 39.1644 23.128C38.6418 23.128 38.1671 23.0213 37.7404 22.808C37.3138 22.5947 36.9778 22.3013 36.7324 21.928C36.4871 21.5547 36.3644 21.1387 36.3644 20.68C36.3644 20.104 36.5084 19.6507 36.7964 19.32C37.0951 18.9893 37.5751 18.7493 38.2364 18.6C38.8978 18.4507 39.8098 18.376 40.9724 18.376H41.3724V18.008C41.3724 17.4853 41.2604 17.1067 41.0364 16.872C40.8124 16.6267 40.4498 16.504 39.9484 16.504C39.6391 16.504 39.3244 16.552 39.0044 16.648C38.6844 16.7333 38.3058 16.8613 37.8684 17.032C37.5911 17.1707 37.3884 17.24 37.2604 17.24C37.0684 17.24 36.9084 17.1707 36.7804 17.032C36.6631 16.8933 36.6044 16.712 36.6044 16.488C36.6044 16.3067 36.6471 16.152 36.7324 16.024C36.8284 15.8853 36.9831 15.7573 37.1964 15.64C37.5698 15.4373 38.0124 15.2773 38.5244 15.16C39.0471 15.0427 39.5591 14.984 40.0604 14.984ZM39.5644 21.688C40.0978 21.688 40.5298 21.512 40.8604 21.16C41.2018 20.7973 41.3724 20.3333 41.3724 19.768V19.432H41.0844C40.3698 19.432 39.8151 19.464 39.4204 19.528C39.0258 19.592 38.7431 19.704 38.5724 19.864C38.4018 20.024 38.3164 20.2427 38.3164 20.52C38.3164 20.8613 38.4338 21.144 38.6684 21.368C38.9138 21.5813 39.2124 21.688 39.5644 21.688ZM51.837 11.64C52.1357 11.64 52.381 11.7253 52.573 11.896C52.765 12.0667 52.861 12.2907 52.861 12.568V22.136C52.861 22.424 52.7704 22.6533 52.589 22.824C52.4077 22.9947 52.1677 23.08 51.869 23.08C51.5704 23.08 51.3304 22.9947 51.149 22.824C50.9677 22.6533 50.877 22.424 50.877 22.136V21.736C50.6424 22.1733 50.301 22.5147 49.853 22.76C49.4157 23.0053 48.9144 23.128 48.349 23.128C47.677 23.128 47.0744 22.9573 46.541 22.616C46.0184 22.2747 45.6077 21.7947 45.309 21.176C45.021 20.5467 44.877 19.8267 44.877 19.016C44.877 18.2053 45.021 17.496 45.309 16.888C45.6077 16.28 46.0184 15.8107 46.541 15.48C47.0637 15.1493 47.6664 14.984 48.349 14.984C48.9144 14.984 49.4157 15.1013 49.853 15.336C50.2904 15.5707 50.6264 15.9013 50.861 16.328V12.536C50.861 12.2693 50.9464 12.056 51.117 11.896C51.2984 11.7253 51.5384 11.64 51.837 11.64ZM48.877 21.576C49.517 21.576 50.0077 21.3573 50.349 20.92C50.701 20.4827 50.877 19.8587 50.877 19.048C50.877 18.2373 50.701 17.6187 50.349 17.192C50.0077 16.7547 49.5224 16.536 48.893 16.536C48.253 16.536 47.757 16.7493 47.405 17.176C47.053 17.6027 46.877 18.216 46.877 19.016C46.877 19.8267 47.053 20.456 47.405 20.904C47.757 21.352 48.2477 21.576 48.877 21.576ZM69.4542 11.64C69.7528 11.64 69.9928 11.736 70.1742 11.928C70.3555 12.1093 70.4462 12.3547 70.4462 12.664V22.136C70.4462 22.4347 70.3608 22.6693 70.1902 22.84C70.0195 23.0107 69.7955 23.096 69.5182 23.096C69.2408 23.096 69.0222 23.0107 68.8622 22.84C68.7022 22.6693 68.6222 22.4347 68.6222 22.136V15.544L65.9022 20.696C65.7742 20.9307 65.6355 21.1067 65.4862 21.224C65.3368 21.3307 65.1608 21.384 64.9582 21.384C64.7555 21.384 64.5795 21.3307 64.4302 21.224C64.2808 21.1173 64.1422 20.9413 64.0142 20.696L61.2782 15.624V22.136C61.2782 22.424 61.1928 22.6587 61.0222 22.84C60.8622 23.0107 60.6435 23.096 60.3662 23.096C60.0888 23.096 59.8702 23.0107 59.7102 22.84C59.5502 22.6693 59.4702 22.4347 59.4702 22.136V12.664C59.4702 12.3547 59.5555 12.1093 59.7262 11.928C59.9075 11.736 60.1475 11.64 60.4462 11.64C60.8622 11.64 61.1875 11.8693 61.4222 12.328L64.9742 19.096L68.5102 12.328C68.7448 11.8693 69.0595 11.64 69.4542 11.64ZM76.2833 23.128C75.4833 23.128 74.7793 22.9627 74.1713 22.632C73.574 22.3013 73.11 21.8267 72.7793 21.208C72.4486 20.5893 72.2833 19.8693 72.2833 19.048C72.2833 18.2267 72.4486 17.512 72.7793 16.904C73.11 16.2853 73.574 15.8107 74.1713 15.48C74.7793 15.1493 75.4833 14.984 76.2833 14.984C77.0833 14.984 77.782 15.1493 78.3793 15.48C78.9873 15.8107 79.4513 16.2853 79.7713 16.904C80.102 17.512 80.2673 18.2267 80.2673 19.048C80.2673 19.8693 80.102 20.5893 79.7713 21.208C79.4513 21.8267 78.9873 22.3013 78.3793 22.632C77.782 22.9627 77.0833 23.128 76.2833 23.128ZM76.2673 21.576C76.918 21.576 77.414 21.3627 77.7553 20.936C78.0966 20.5093 78.2673 19.88 78.2673 19.048C78.2673 18.2267 78.0966 17.6027 77.7553 17.176C77.414 16.7387 76.9233 16.52 76.2833 16.52C75.6433 16.52 75.1473 16.7387 74.7953 17.176C74.454 17.6027 74.2833 18.2267 74.2833 19.048C74.2833 19.88 74.454 20.5093 74.7953 20.936C75.1366 21.3627 75.6273 21.576 76.2673 21.576ZM86.2864 15.016C86.5638 14.9947 86.7824 15.0533 86.9424 15.192C87.1024 15.3307 87.1824 15.5387 87.1824 15.816C87.1824 16.104 87.1131 16.3173 86.9744 16.456C86.8358 16.5947 86.5851 16.6853 86.2224 16.728L85.7424 16.776C85.1131 16.84 84.6491 17.0533 84.3504 17.416C84.0624 17.7787 83.9184 18.232 83.9184 18.776V22.136C83.9184 22.4453 83.8224 22.6853 83.6304 22.856C83.4384 23.016 83.1984 23.096 82.9104 23.096C82.6224 23.096 82.3824 23.016 82.1904 22.856C82.0091 22.6853 81.9184 22.4453 81.9184 22.136V15.944C81.9184 15.6453 82.0091 15.416 82.1904 15.256C82.3824 15.096 82.6171 15.016 82.8944 15.016C83.1718 15.016 83.3958 15.096 83.5664 15.256C83.7371 15.4053 83.8224 15.624 83.8224 15.912V16.552C84.0251 16.0827 84.3238 15.72 84.7184 15.464C85.1238 15.208 85.5718 15.064 86.0624 15.032L86.2864 15.016ZM94.0792 20.856C94.2605 20.856 94.4045 20.9253 94.5112 21.064C94.6285 21.2027 94.6872 21.3893 94.6872 21.624C94.6872 21.9547 94.4898 22.232 94.0952 22.456C93.7325 22.6587 93.3218 22.824 92.8632 22.952C92.4045 23.0693 91.9672 23.128 91.5512 23.128C90.2925 23.128 89.2952 22.7653 88.5592 22.04C87.8232 21.3147 87.4552 20.3227 87.4552 19.064C87.4552 18.264 87.6152 17.5547 87.9352 16.936C88.2552 16.3173 88.7032 15.8373 89.2792 15.496C89.8658 15.1547 90.5272 14.984 91.2632 14.984C91.9672 14.984 92.5805 15.1387 93.1032 15.448C93.6258 15.7573 94.0312 16.1947 94.3192 16.76C94.6072 17.3253 94.7512 17.992 94.7512 18.76C94.7512 19.2187 94.5485 19.448 94.1432 19.448H89.4232C89.4872 20.184 89.6952 20.728 90.0472 21.08C90.3992 21.4213 90.9112 21.592 91.5832 21.592C91.9245 21.592 92.2232 21.5493 92.4792 21.464C92.7458 21.3787 93.0445 21.2613 93.3752 21.112C93.6952 20.9413 93.9298 20.856 94.0792 20.856ZM91.3112 16.392C90.7672 16.392 90.3298 16.5627 89.9992 16.904C89.6792 17.2453 89.4872 17.736 89.4232 18.376H93.0392C93.0178 17.7253 92.8578 17.2347 92.5592 16.904C92.2605 16.5627 91.8445 16.392 91.3112 16.392Z" fill="url(#paint0_linear_213_286)"/>
<rect x="0.503418" y="0.5" width="111" height="35" rx="7.5" stroke="url(#paint1_linear_213_286)"/>
<defs>
<linearGradient id="paint0_linear_213_286" x1="16.0034" y1="7" x2="50.1201" y2="59.0656" gradientUnits="userSpaceOnUse">
<stop stop-color="#C381DB"/>
<stop offset="1" stop-color="#4E92F9"/>
</linearGradient>
<linearGradient id="paint1_linear_213_286" x1="0.00341797" y1="0" x2="58.79" y2="76.7557" gradientUnits="userSpaceOnUse">
<stop stop-color="#C381DB"/>
<stop offset="1" stop-color="#4E92F9"/>
</linearGradient>
</defs>
</svg>
